<svg width="51" height="51" viewBox="0 0 51 51" fill="none" xmlns="http://www.w3.org/2000/svg">
<rect width="50" height="50" transform="translate(0.456421 0.447693)" fill="black"/>
<path d="M44.7911 38.831C44.0665 40.5051 43.2088 42.046 42.215 43.4628C40.8603 45.3942 39.7512 46.7311 38.8964 47.4735C37.5713 48.692 36.1516 49.3161 34.6313 49.3516C33.5399 49.3516 32.2237 49.0411 30.6916 48.4111C29.1545 47.784 27.7419 47.4735 26.4503 47.4735C25.0956 47.4735 23.6428 47.784 22.0888 48.4111C20.5324 49.0411 19.2787 49.3694 18.3201 49.4019C16.8622 49.464 15.4091 48.8222 13.9586 47.4735C13.0328 46.666 11.8749 45.2818 10.4877 43.3208C8.99936 41.2267 7.77575 38.7984 6.81715 36.03C5.79052 33.0398 5.27588 30.1441 5.27588 27.3408C5.27588 24.1296 5.96976 21.36 7.3596 19.0391C8.45189 17.1748 9.90502 15.7042 11.7237 14.6247C13.5424 13.5451 15.5076 12.9949 17.6238 12.9597C18.7818 12.9597 20.3003 13.3179 22.1873 14.0219C24.069 14.7282 25.2772 15.0864 25.807 15.0864C26.203 15.0864 27.5452 14.6675 29.8206 13.8326C31.9723 13.0582 33.7884 12.7376 35.2761 12.8639C39.3075 13.1893 42.3362 14.7785 44.3504 17.6415C40.745 19.8261 38.9615 22.8859 38.9969 26.8111C39.0295 29.8685 40.1386 32.4127 42.3185 34.4328C43.3064 35.3704 44.4096 36.0951 45.637 36.6097C45.3709 37.3817 45.0899 38.1211 44.7911 38.831V38.831ZM35.5453 2.44799C35.5453 4.84436 34.6698 7.08186 32.9247 9.15285C30.8188 11.6149 28.2716 13.0375 25.5094 12.813C25.4742 12.5256 25.4538 12.223 25.4538 11.905C25.4538 9.6045 26.4553 7.14249 28.2338 5.12946C29.1217 4.11023 30.2509 3.26275 31.6204 2.5867C32.9868 1.92074 34.2794 1.55245 35.495 1.48938C35.5305 1.80974 35.5453 2.13012 35.5453 2.44795V2.44799Z" fill="white"/>
</svg>
