<svg width="50" height="50" viewBox="0 0 50 50" fill="none" xmlns="http://www.w3.org/2000/svg">
<path opacity="0.99" d="M4 0H50V50H4C2.93913 50 1.92172 49.5786 1.17157 48.8284C0.421427 48.0783 0 47.0609 0 46V4C0 2.93913 0.421427 1.92172 1.17157 1.17157C1.92172 0.421427 2.93913 0 4 0V0Z" fill="white"/>
<path d="M24.5 17.552C26.1404 17.5256 27.7253 18.1452 28.913 19.277L32.195 15.995C30.1127 14.0409 27.3554 12.9677 24.5 13C22.3687 12.9997 20.2792 13.5919 18.4651 14.7106C16.651 15.8293 15.1836 17.4304 14.227 19.335L18.051 22.3C18.4939 20.9333 19.3545 19.74 20.5114 18.8882C21.6684 18.0364 23.0634 17.5691 24.5 17.552Z" fill="#EA4335"/>
<path d="M35.511 24.763C35.5073 24.0327 35.4465 23.3038 35.329 22.583H24.5V26.905H30.7C30.5657 27.6017 30.2941 28.2647 29.9009 28.8553C29.5077 29.4459 29.0009 29.9523 28.41 30.345L32.11 33.22C33.2343 32.1248 34.1175 30.8068 34.703 29.3505C35.2885 27.8942 35.5634 26.3317 35.51 24.763H35.511Z" fill="#4285F4"/>
<path d="M18.046 26.7C17.8076 25.9909 17.6847 25.2481 17.682 24.5C17.6824 23.7517 17.8054 23.0085 18.046 22.3L14.222 19.335C13.4169 20.9379 12.9977 22.7068 12.9977 24.5005C12.9977 26.2942 13.4169 28.0631 14.222 29.666L18.046 26.7Z" fill="#FBBC05"/>
<path d="M24.5 36C27.3008 36.0809 30.026 35.0845 32.114 33.216L28.414 30.341C27.2501 31.0906 25.888 31.4738 24.504 31.441C23.0665 31.4243 21.6704 30.9575 20.512 30.1062C19.3536 29.2549 18.4912 28.0619 18.046 26.695L14.222 29.661C15.179 31.5667 16.647 33.1687 18.462 34.2881C20.277 35.4075 22.3675 36.0002 24.5 36Z" fill="#34A853"/>
</svg>
